# xmcd CD database file
#
# Track frame offsets:
#	150
#	20720
#	38259
#	60477
#	84963
#	109704
#	134437
#	171701
#	210552
#	224755
#	241064
#	278800
#	316946
#
# Disc length: 4442 seconds
#
# Revision: 0
# Processed by: cddbd v1.5.2PL0 Copyright (c) Steve Scherf et al.
# Submitted via: Feurio! 1.68 - http://www.feurio.com
#
DISCID=b511580d
DTITLE=Henrik Freischlader - Recorded By Martin Meinschäfer
DYEAR=1900
DGENRE=
TTITLE0=I
TTITLE1=Got it made (like this)
TTITLE2=So damn cool
TTITLE3=You will come
TTITLE4=Breakout
TTITLE5=In your arms
TTITLE6=The Bridge
TTITLE7=Cry again
TTITLE8=The wrong way
TTITLE9=Never be true
TTITLE10=Desert love
TTITLE11=Bad dreams
TTITLE12=Your love of mine
EXTD=
EXTT0=
EXTT1=
EXTT2=
EXTT3=
EXTT4=
EXTT5=
EXTT6=
EXTT7=
EXTT8=
EXTT9=
EXTT10=
EXTT11=
EXTT12=
PLAYORDER=
